<mxfile host="app.diagrams.net" agent="Mozilla/5.0 (Macintosh; Intel Mac OS X 10_15_7) AppleWebKit/537.36 (KHTML, like Gecko) Chrome/128.0.0.0 Safari/537.36" version="24.7.12">
  <diagram name="Page-1" id="igd_fC3ZIpIYKO5eqExq">
    <mxGraphModel dx="933" dy="622" grid="1" gridSize="10" guides="1" tooltips="1" connect="1" arrows="1" fold="1" page="1" pageScale="1" pageWidth="850" pageHeight="1100" math="0" shadow="0">
      <root>
        <mxCell id="0" />
        <mxCell id="1" parent="0" />
        <mxCell id="GGGA3vVha_UHYo8XQYGH-2" value="&lt;div style=&quot;padding-left: 3px;&quot;&gt;&lt;b style=&quot;background-color: initial;&quot;&gt;&lt;font style=&quot;font-size: 17px;&quot;&gt;Users&lt;/font&gt;&lt;/b&gt;&lt;br&gt;&lt;/div&gt;" style="rounded=1;whiteSpace=wrap;html=1;align=left;strokeColor=none;shadow=1;" vertex="1" parent="1">
          <mxGeometry x="320" y="282.5" width="160" height="77.5" as="geometry" />
        </mxCell>
        <mxCell id="GGGA3vVha_UHYo8XQYGH-17" value="&lt;div style=&quot;padding-left: 3px;&quot;&gt;&lt;b style=&quot;font-size: 17px; background-color: initial;&quot;&gt;AI-&lt;/b&gt;&lt;b style=&quot;font-size: 17px; background-color: initial;&quot;&gt;Powered&amp;nbsp;&lt;/b&gt;&lt;br&gt;&lt;/div&gt;&lt;div style=&quot;padding-left: 3px; margin-left: 0px;&quot;&gt;&lt;b style=&quot;font-size: 17px; background-color: initial;&quot;&gt;Chatbot&lt;/b&gt;&lt;/div&gt;" style="rounded=1;whiteSpace=wrap;html=1;align=left;strokeColor=none;shadow=1;" vertex="1" parent="1">
          <mxGeometry x="100" y="282.5" width="160" height="77.5" as="geometry" />
        </mxCell>
        <mxCell id="GGGA3vVha_UHYo8XQYGH-18" value="&lt;div style=&quot;padding-left: 3px;&quot;&gt;&lt;b style=&quot;background-color: initial; font-size: 17px;&quot;&gt;Content&amp;nbsp;&lt;/b&gt;&lt;br&gt;&lt;/div&gt;&lt;div style=&quot;font-size: 17px; padding-left: 3px;&quot;&gt;&lt;b style=&quot;&quot;&gt;&lt;font style=&quot;font-size: 17px;&quot;&gt;Management&lt;/font&gt;&lt;/b&gt;&lt;div style=&quot;&quot;&gt;&lt;b style=&quot;&quot;&gt;&lt;font style=&quot;font-size: 17px;&quot;&gt;System&lt;/font&gt;&lt;/b&gt;&lt;/div&gt;&lt;/div&gt;" style="rounded=1;whiteSpace=wrap;html=1;align=left;strokeColor=none;shadow=1;" vertex="1" parent="1">
          <mxGeometry x="320" y="420" width="160" height="77.5" as="geometry" />
        </mxCell>
        <mxCell id="GGGA3vVha_UHYo8XQYGH-19" value="&lt;div style=&quot;font-size: 17px; line-height: 120%; padding-left: 3px;&quot;&gt;&lt;span style=&quot;background-color: initial;&quot;&gt;&lt;b style=&quot;&quot;&gt;&lt;font style=&quot;font-size: 17px;&quot;&gt;Product &amp;amp;&amp;nbsp;&lt;/font&gt;&lt;/b&gt;&lt;/span&gt;&lt;/div&gt;&lt;div style=&quot;font-size: 17px; line-height: 120%; padding-left: 3px;&quot;&gt;&lt;b style=&quot;background-color: initial;&quot;&gt;&lt;font style=&quot;font-size: 17px;&quot;&gt;Service Recommendation&lt;/font&gt;&lt;/b&gt;&lt;/div&gt;" style="rounded=1;whiteSpace=wrap;html=1;align=left;strokeColor=none;gradientColor=none;shadow=1;" vertex="1" parent="1">
          <mxGeometry x="320" y="140" width="160" height="77.5" as="geometry" />
        </mxCell>
        <mxCell id="GGGA3vVha_UHYo8XQYGH-20" value="&lt;div style=&quot;padding-left: 3px; font-size: 17px;&quot;&gt;&lt;font style=&quot;font-size: 17px;&quot;&gt;&lt;b style=&quot;background-color: initial;&quot;&gt;User&amp;nbsp;&lt;/b&gt;&lt;br&gt;&lt;/font&gt;&lt;/div&gt;&lt;div style=&quot;padding-left: 3px; font-size: 17px;&quot;&gt;&lt;b style=&quot;&quot;&gt;&lt;font style=&quot;font-size: 17px;&quot;&gt;Analytics&lt;/font&gt;&lt;/b&gt;&lt;/div&gt;&lt;div style=&quot;padding-left: 3px; font-size: 17px;&quot;&gt;&lt;b style=&quot;background-color: initial;&quot;&gt;&lt;font style=&quot;font-size: 17px;&quot;&gt;Dashboard&lt;/font&gt;&lt;/b&gt;&lt;/div&gt;" style="rounded=1;whiteSpace=wrap;html=1;align=left;strokeColor=none;glass=0;shadow=1;" vertex="1" parent="1">
          <mxGeometry x="545" y="282.5" width="160" height="77.5" as="geometry" />
        </mxCell>
        <mxCell id="GGGA3vVha_UHYo8XQYGH-5" value="" style="shape=image;verticalLabelPosition=bottom;labelBackgroundColor=none;verticalAlign=top;aspect=fixed;imageAspect=0;image=data:image/svg+xml,PHN2ZyB4bWxucz0iaHR0cDovL3d3dy53My5vcmcvMjAwMC9zdmciIHZpZXdCb3g9IjAgMCAyNSAyNSIgZGF0YS1uYW1lPSJMYXllciAxIiBpZD0iTGF5ZXJfMSI+PGRlZnM+PHN0eWxlPi5jbHMtMXtmaWxsOiMwMTAxMDE7ZmlsbC1ydWxlOmV2ZW5vZGQ7fTwvc3R5bGU+PC9kZWZzPjxwYXRoIGQ9Ik0xMi41MywyLjA5QTEuMzgsMS4zOCwwLDEsMCwxMy45LDMuNDcsMS4zOCwxLjM4LDAsMCwwLDEyLjUzLDIuMDlaTTEwLjIxLDMuNDdBMi4zMiwyLjMyLDAsMSwxLDEzLDUuNzR2MWg1LjY4QTQuNDcsNC40NywwLDAsMSwyMy4xNSwxMWguMTVBMS43MSwxLjcxLDAsMCwxLDI1LDEyLjd2My4zOGExLjcxLDEuNzEsMCwwLDEtMS43LDEuNzFoLS4xN2E0LjQ4LDQuNDgsMCwwLDEtNC40NSw0SDE1LjQ0YTEuOTEsMS45MSwwLDAsMS0uMjEuNDksMiwyLDAsMSwxLS43NC0yLjc4LDIsMiwwLDAsMSwxLDEuMzRoMy4yMmEzLjUzLDMuNTMsMCwwLDAsMy41My0zLjUzVjExLjE2YTMuNTMsMy41MywwLDAsMC0zLjUzLTMuNTNINi4zN2EzLjUyLDMuNTIsMCwwLDAtMy41MiwzLjUzVjIyLjc0YS4xNS4xNSwwLDAsMCwuMjUuMTNMNSwyMS40YTIuNzEsMi43MSwwLDAsMSwxLjY0LS41NmgzYS40OC40OCwwLDAsMSwwLC45NWgtM2ExLjY4LDEuNjgsMCwwLDAtMS4wNi4zNkwzLjY4LDIzLjYyYTEuMSwxLjEsMCwwLDEtMS43OC0uODd2LTVIMS43NkExLjcyLDEuNzIsMCwwLDEsLjA1LDE2LjA4VjEyLjdBMS43MiwxLjcyLDAsMCwxLDEuNzYsMTFIMS45YTQuNDcsNC40NywwLDAsMSw0LjQ3LTQuM2g1LjY4di0xYTIuMzIsMi4zMiwwLDAsMS0xLjg0LTIuMjdaTTEsMTIuN2EuNzYuNzYsMCwwLDEsLjc2LS43NmguMDd2NC45SDEuNzZBLjc2Ljc2LDAsMCwxLDEsMTYuMDhabTIzLjA1LDBhLjc2Ljc2LDAsMCwwLS43NS0uNzZoLS4wOHY0LjloLjA4YS43Ni43NiwwLDAsMCwuNzUtLjc2Wk03LjMsMTIuMzlhMS4yMywxLjIzLDAsMCwxLDIuNDYsMHYyLjE1YTEuMjMsMS4yMywwLDAsMS0yLjQ2LDBabTkuMjMtMS4yM2ExLjIzLDEuMjMsMCwwLDAtMS4yMywxLjIzdjIuMTVhMS4yMywxLjIzLDAsMCwwLDIuNDYsMFYxMi4zOUExLjIzLDEuMjMsMCwwLDAsMTYuNTMsMTEuMTZaIiBjbGFzcz0iY2xzLTEiLz48L3N2Zz4=;imageBackground=none;shadow=0;opacity=50;fontColor=none;noLabel=1;textOpacity=50;" vertex="1" parent="1">
          <mxGeometry x="200" y="289" width="59" height="59" as="geometry" />
        </mxCell>
        <mxCell id="GGGA3vVha_UHYo8XQYGH-6" value="" style="shape=image;verticalLabelPosition=bottom;labelBackgroundColor=none;verticalAlign=top;aspect=fixed;imageAspect=0;image=data:image/svg+xml,PHN2ZyB4bWxucz0iaHR0cDovL3d3dy53My5vcmcvMjAwMC9zdmciIHZpZXdCb3g9IjAgMCAyNSAyNSIgZGF0YS1uYW1lPSJMYXllciAxIiBpZD0iTGF5ZXJfMSI+PGRlZnM+PHN0eWxlPi5jbHMtMXtmaWxsOiMwMTAxMDE7ZmlsbC1ydWxlOmV2ZW5vZGQ7fTwvc3R5bGU+PC9kZWZzPjxwYXRoIGQ9Ik00LjEyLDUuNDNhMSwxLDAsMCwwLDAtMiwxLDEsMCwxLDAsMCwyWm0wLTEuM2EuMjkuMjksMCwwLDEsMCwuNTcuMjkuMjksMCwxLDEsMC0uNTdabTIuNDIsMS4zYTEsMSwwLDAsMCwwLTIsMSwxLDAsMSwwLDAsMlptMC0xLjNhLjI5LjI5LDAsMCwxLDAsLjU3LjI5LjI5LDAsMSwxLDAtLjU3Wk05LDUuNDNhMSwxLDAsMCwwLDEtMSwxLDEsMCwxLDAtMiwwQTEsMSwwLDAsMCw5LDUuNDNabTAtMS4zYS4yOS4yOSwwLDEsMS0uMjguMjhBLjI5LjI5LDAsMCwxLDksNC4xM1ptMi4xMi4yOWEuMzYuMzYsMCwwLDEsLjM2LS4zN2g4YS4zNy4zNywwLDEsMSwwLC43M2gtOEEuMzYuMzYsMCwwLDEsMTEuMDcsNC40MlpNMjMuODUsMTcuMDZsLS45LS4yOXMwLDAsMCwwbC40My0uODRhLjgyLjgyLDAsMCwwLS4xNS0xbC0uNjktLjY5YS44MS44MSwwLDAsMC0uNjEtLjI0VjMuNTZBMS41NiwxLjU2LDAsMCwwLDIwLjM0LDJIMi41NkExLjU2LDEuNTYsMCwwLDAsMSwzLjU2VjE5LjE4YTEuNTYsMS41NiwwLDAsMCwxLjU1LDEuNTZoMTIuM2wwLC4wNmEuODMuODMsMCwwLDAsLjE1LDFsLjcuN2EuODQuODQsMCwwLDAsMSwuMTVsLjg1LS40MywwLDAsLjMuOWEuODIuODIsMCwwLDAsLjc4LjU3aDFhLjgzLjgzLDAsMCwwLC43OS0uNThsLjI5LS44OSwwLDAsLjg0LjQzYS44NS44NSwwLDAsMCwxLS4xNWwuNjktLjdhLjguOCwwLDAsMCwuMTUtMUwyMi45NCwyMHMwLDAsMCwwbC45LS4yOWEuODQuODQsMCwwLDAsLjU3LS43OXYtMUEuODMuODMsMCwwLDAsMjMuODUsMTcuMDZaTTIuNTYsMi43M0gyMC4zNGEuODMuODMsMCwwLDEsLjgzLjgyVjYuMUgxLjc0VjMuNTZBLjgzLjgzLDAsMCwxLDIuNTYsMi43M1pNMi41NiwyMGEuODMuODMsMCwwLDEtLjgyLS44M1Y2Ljg0SDIxLjE3djcuNDNsLS40Ni4yNCwwLDAtLjI5LS45YS44NC44NCwwLDAsMC0uNzktLjU3aC0xYS44NC44NCwwLDAsMC0uNzkuNTdsLS4yOS45LDAsMC0uODQtLjQzYS44Mi44MiwwLDAsMC0xLC4xNWwtLjcuN2EuODIuODIsMCwwLDAtLjE1LDFsLjQzLjg0czAsMCwwLDBsLS45LjI5YS44My44MywwLDAsMC0uNTcuNzl2MWEuODQuODQsMCwwLDAsLjU3Ljc5bC45LjI5czAsMCwwLDBsMCwuMDVabTIxLjEzLTEuMTdhLjExLjExLDAsMCwxLS4wNy4wOWwtMS4wNy4zNGEuMzcuMzcsMCwwLDAtLjIzLjIzLDIuNTgsMi41OCwwLDAsMS0uMTMuMzEuNC40LDAsMCwwLDAsLjMybC41MSwxYS4wOS4wOSwwLDAsMSwwLC4xMWwtLjcuN2EuMDguMDgsMCwwLDEtLjExLDBsLTEtLjVhLjMzLjMzLDAsMCwwLS4zMiwwbC0uMzEuMTNhLjM0LjM0LDAsMCwwLS4yMi4yM2wtLjM1LDEuMDdhLjA5LjA5LDAsMCwxLS4wOS4wNmgtMWEuMDkuMDksMCwwLDEtLjA5LS4wNmwtLjM1LTEuMDdhLjMyLjMyLDAsMCwwLS4yMi0uMjNsLS4zMS0uMTNhLjQyLjQyLDAsMCwwLS4xNiwwLC40Ny40NywwLDAsMC0uMTYsMGwtMSwuNTFhLjA4LjA4LDAsMCwxLS4xMSwwbC0uNy0uNjlhLjExLjExLDAsMCwxLDAtLjEybC41MS0xYS4zOC4zOCwwLDAsMCwwLS4zMywxLjk0LDEuOTQsMCwwLDEtLjEzLS4zLjM3LjM3LDAsMCwwLS4yMy0uMjNsLTEuMDctLjM0YS4xLjEsMCwwLDEtLjA2LS4xdi0xYS4xLjEsMCwwLDEsLjA2LS4xbDEuMDctLjM0YS4zNy4zNywwLDAsMCwuMjMtLjIzYzAtLjEuMDgtLjIuMTMtLjNhLjM1LjM1LDAsMCwwLDAtLjMzbC0uNTEtMWEuMTEuMTEsMCwwLDEsMC0uMTJsLjctLjdhLjA5LjA5LDAsMCwxLC4xMSwwbDEsLjUxYS4zNi4zNiwwLDAsMCwuMzIsMGwuMzEtLjEzYS4zMi4zMiwwLDAsMCwuMjItLjIzbC4zNS0xLjA2YS4wOS4wOSwwLDAsMSwuMDktLjA3aDFhLjA4LjA4LDAsMCwxLC4wOS4wNkwyMCwxNC44OGEuMzIuMzIsMCwwLDAsLjIyLjIzbC4zMS4xM2EuMzYuMzYsMCwwLDAsLjMyLDBsLjgyLS40MmgwbC4xNy0uMDhhLjA5LjA5LDAsMCwxLC4xMSwwbC43LjY5YS4xMi4xMiwwLDAsMSwwLC4xMmwtLjUxLDFhLjM5LjM5LDAsMCwwLDAsLjMyLDEuNTgsMS41OCwwLDAsMSwuMTMuMzEuMzYuMzYsMCwwLDAsLjIzLjIybDEuMDcuMzVhLjA5LjA5LDAsMCwxLC4wNy4wOVpNMTkuMSwxNS45YTIuNDUsMi40NSwwLDEsMCwyLjQ0LDIuNDRBMi40NSwyLjQ1LDAsMCwwLDE5LjEsMTUuOVptMCw0LjE1YTEuNzEsMS43MSwwLDEsMSwxLjcxLTEuNzFBMS43LDEuNywwLDAsMSwxOS4xLDIwLjA1Wk00LjM2LDEyLjZIMTguNTVhLjM2LjM2LDAsMCwwLC4zNi0uMzdWOC40OWEuMzYuMzYsMCwwLDAtLjM2LS4zNkg0LjM2QS4zNy4zNywwLDAsMCw0LDguNDl2My43NEEuMzcuMzcsMCwwLDAsNC4zNiwxMi42Wm0uMzctMy43NEgxOC4xOHYzSDQuNzNaTTQsMTQuMmEuMzcuMzcsMCwwLDEsLjM3LS4zNmg5LjczYS4zNy4zNywwLDEsMSwwLC43M0g0LjM2QS4zNy4zNywwLDAsMSw0LDE0LjJabTkuNzgsMi4wOGEuMzcuMzcsMCwwLDEtLjM2LjM3aC05YS4zNy4zNywwLDEsMSwwLS43NGg5LjA1QS4zNy4zNywwLDAsMSwxMy43NywxNi4yOFpNMTMsMTguMzVhLjM3LjM3LDAsMCwxLS4zNi4zN0g0LjM2YS4zNy4zNywwLDEsMSwwLS43NGg4LjI3QS4zNy4zNywwLDAsMSwxMywxOC4zNVoiIGNsYXNzPSJjbHMtMSIvPjwvc3ZnPg==;opacity=50;textOpacity=50;fontColor=none;noLabel=1;" vertex="1" parent="1">
          <mxGeometry x="429" y="434" width="51" height="51" as="geometry" />
        </mxCell>
        <mxCell id="GGGA3vVha_UHYo8XQYGH-7" value="" style="shape=image;verticalLabelPosition=bottom;labelBackgroundColor=none;verticalAlign=top;aspect=fixed;imageAspect=0;image=data:image/svg+xml,PHN2ZyB4bWxucz0iaHR0cDovL3d3dy53My5vcmcvMjAwMC9zdmciIHZpZXdCb3g9IjAgMCAyNSAyNSIgZGF0YS1uYW1lPSJMYXllciAxIiBpZD0iTGF5ZXJfMSI+PGRlZnM+PHN0eWxlPi5jbHMtMXtmaWxsOiMwMTAxMDE7ZmlsbC1ydWxlOmV2ZW5vZGQ7fTwvc3R5bGU+PC9kZWZzPjxwYXRoIGQ9Ik0yMy41LDEuODVoLTIyQTEuNDksMS40OSwwLDAsMCwwLDMuMzRWMjEuNjVhMS41LDEuNSwwLDAsMCwxLjQ5LDEuNWgyMkExLjUsMS41LDAsMCwwLDI1LDIxLjY1VjMuMzRBMS41LDEuNSwwLDAsMCwyMy41LDEuODVabS0yMiwuNjNoMjJhLjg3Ljg3LDAsMCwxLC44Ni44NlY2LjIySC42MlYzLjM0QS44Ny44NywwLDAsMSwxLjQ5LDIuNDhabTIyLDIwaC0yMmEuODcuODcsMCwwLDEtLjg3LS44N1Y2Ljg0SDI0LjM3VjIxLjY1QS44Ny44NywwLDAsMSwyMy41LDIyLjUyWiIgY2xhc3M9ImNscy0xIi8+PHBhdGggZD0iTTIsNC44NGg5LjU0YS4zMS4zMSwwLDAsMCwwLS42MkgyYS4zMS4zMSwwLDAsMCwwLC42MloiIGNsYXNzPSJjbHMtMSIvPjxwYXRoIGQ9Ik0xNC42OCw0Ljg0aDEuNDdhLjMxLjMxLDAsMCwwLDAtLjYySDE0LjY4YS4zMS4zMSwwLDEsMCwwLC42MloiIGNsYXNzPSJjbHMtMSIvPjxwYXRoIGQ9Ik0xNy42Niw0Ljg0aDEuNDdhLjMxLjMxLDAsMCwwLDAtLjYySDE3LjY2YS4zMS4zMSwwLDEsMCwwLC42MloiIGNsYXNzPSJjbHMtMSIvPjxwYXRoIGQ9Ik0yMC42Myw0Ljg0SDIyLjFhLjMxLjMxLDAsMSwwLDAtLjYySDIwLjYzYS4zMS4zMSwwLDAsMCwwLC42MloiIGNsYXNzPSJjbHMtMSIvPjxwYXRoIGQ9Ik0xMi41LDkuMDhIMi4zN2EuNjQuNjQsMCwwLDAtLjY0LjY0VjE5Ljg1YS42NC42NCwwLDAsMCwuNjQuNjVIMTIuNWEuNjQuNjQsMCwwLDAsLjYzLS42NVY5LjcyQS42NC42NCwwLDAsMCwxMi41LDkuMDhabTAsMTAuNzd2MGwtMTAuMTUsMCwwLTEwLjE0SDEyLjUxWiIgY2xhc3M9ImNscy0xIi8+PHBhdGggZD0iTTkuMiwxNC42YTEuNzIsMS43MiwwLDAsMCwxLjcxLTEuNzF2LS4wNWEuMzEuMzEsMCwwLDAtLjMxLS4zMUg5LjUydi0xYS4zMS4zMSwwLDAsMC0uMzItLjMxLDEuNzEsMS43MSwwLDAsMCwwLDMuNDFaIiBjbGFzcz0iY2xzLTEiLz48cGF0aCBkPSJNMTAuMDgsMTIuMzdoMS40YS4zMS4zMSwwLDAsMCwuMzEtLjMyLjI1LjI1LDAsMCwwLDAtLjA4LDEuNzEsMS43MSwwLDAsMC0xLjctMS41Ny4zMS4zMSwwLDAsMC0uMzEuMzJ2MS4zM0EuMzEuMzEsMCwwLDAsMTAuMDgsMTIuMzdaIiBjbGFzcz0iY2xzLTEiLz48cGF0aCBkPSJNNC41NSwxNi4zSDMuMzlhLjMxLjMxLDAsMCwwLS4zMS4zMXYyLjIzYS4zMS4zMSwwLDAsMCwuMzEuMzFINC41NWEuMzEuMzEsMCwwLDAsLjMxLS4zMVYxNi42MUEuMzEuMzEsMCwwLDAsNC41NSwxNi4zWiIgY2xhc3M9ImNscy0xIi8+PHBhdGggZD0iTTYuODUsMTQuNDNINS43YS4zMS4zMSwwLDAsMC0uMzEuMzF2NC4xYS4zMS4zMSwwLDAsMCwuMzEuMzFINi44NWEuMzIuMzIsMCwwLDAsLjMyLS4zMXYtNC4xQS4zMi4zMiwwLDAsMCw2Ljg1LDE0LjQzWiIgY2xhc3M9ImNscy0xIi8+PHBhdGggZD0iTTkuMTYsMTYuM0g4YS4zMS4zMSwwLDAsMC0uMzEuMzF2Mi4yM2EuMzEuMzEsMCwwLDAsLjMxLjMxSDkuMTZhLjMyLjMyLDAsMCwwLC4zMi0uMzFWMTYuNjFBLjMzLjMzLDAsMCwwLDkuMTYsMTYuM1oiIGNsYXNzPSJjbHMtMSIvPjxwYXRoIGQ9Ik0xMS40NywxNS4xMkgxMC4zMWEuMzEuMzEsMCwwLDAtLjMxLjMxdjMuNDFhLjMxLjMxLDAsMCwwLC4zMS4zMWgxLjE2YS4zMi4zMiwwLDAsMCwuMzItLjMxVjE1LjQzQS4zMS4zMSwwLDAsMCwxMS40NywxNS4xMloiIGNsYXNzPSJjbHMtMSIvPjxwYXRoIGQ9Ik0yMS43OCwxNi41NkgxNS4yYS42My42MywwLDAsMC0uNjMuNjJ2Mi42OGEuNjQuNjQsMCwwLDAsLjYzLjY0aDYuNThhLjY0LjY0LDAsMCwwLC42My0uNjRWMTcuMThBLjYzLjYzLDAsMCwwLDIxLjc4LDE2LjU2WiIgY2xhc3M9ImNscy0xIi8+PHBhdGggZD0iTTIyLjEsMTFIMTQuODhhLjMxLjMxLDAsMCwwLS4zMS4zMS4zMi4zMiwwLDAsMCwuMzEuMzJoNy4yMWEuMzIuMzIsMCwwLDAsLjMyLS4zMkEuMzEuMzEsMCwwLDAsMjIuMSwxMVoiIGNsYXNzPSJjbHMtMSIvPjxwYXRoIGQ9Ik0yMi4xLDEyLjg3SDE0Ljg4YS4zMi4zMiwwLDAsMCwwLC42M2g3LjIxYS4zMi4zMiwwLDEsMCwwLS42M1oiIGNsYXNzPSJjbHMtMSIvPjxwYXRoIGQ9Ik0yMi4xLDE0Ljc4SDE0Ljg4YS4zMS4zMSwwLDAsMCwwLC42Mmg3LjIxYS4zMS4zMSwwLDEsMCwwLS42MloiIGNsYXNzPSJjbHMtMSIvPjxwYXRoIGQ9Ik0yMi4xLDkuMDhIMTQuODhhLjMyLjMyLDAsMCwwLDAsLjYzaDcuMjFhLjMyLjMyLDAsMCwwLDAtLjYzWiIgY2xhc3M9ImNscy0xIi8+PC9zdmc+;opacity=50;fontColor=none;noLabel=1;textOpacity=50;" vertex="1" parent="1">
          <mxGeometry x="640" y="289" width="61" height="61" as="geometry" />
        </mxCell>
        <mxCell id="GGGA3vVha_UHYo8XQYGH-8" value="" style="shape=image;verticalLabelPosition=bottom;labelBackgroundColor=none;verticalAlign=top;aspect=fixed;imageAspect=0;image=data:image/svg+xml,PHN2ZyB4bWxucz0iaHR0cDovL3d3dy53My5vcmcvMjAwMC9zdmciIHZpZXdCb3g9IjAgMCAyNSAyNSIgZGF0YS1uYW1lPSJMYXllciAxIiBpZD0iTGF5ZXJfMSI+PGRlZnM+PHN0eWxlPi5jbHMtMXtmaWxsOiMwMTAxMDE7ZmlsbC1ydWxlOmV2ZW5vZGQ7fTwvc3R5bGU+PC9kZWZzPjxwYXRoIGQ9Ik0yNSwxMi41N1Y2LjQxYTEuMjksMS4yOSwwLDAsMC0xLjI5LTEuMjlINi4xM2wtLjA4LS42NUExLjI3LDEuMjcsMCwwLDAsNC43NSwzLjRIMS4zMUExLjI5LDEuMjksMCwwLDAsMS4zMSw2SDMuNjhMNS42MiwxN0ExLjI1LDEuMjUsMCwwLDAsNi45MSwxOEg4LjQybC41Ni42OWExLjczLDEuNzMsMCwxLDAsMi43NSwwbC41Ni0uNjloNi40NmwuNTYuNjlhMS44LDEuOCwwLDAsMC0uMzQsMSwxLjczLDEuNzMsMCwxLDAsMy4xLTFsLjU2LS42OWgxLjA4YTEuMjksMS4yOSwwLDAsMCwwLTIuNThIMTMuNDFsMTAuNTEtMS42QTEuMzIsMS4zMiwwLDAsMCwyNSwxMi41N1ptLS44Ni02LjE2djNIMTkuNFY2aDQuMzFhLjQ3LjQ3LDAsMCwxLC40My40M1pNOCwxNS40MmwtLjkxLTUuMTNoNC41N3Y0LjU2Wm00LjUyLTUuMTNoNnYzLjQ5bC02LDFabTAtLjg2VjZoNlY5LjQzWk0xMS42NSw2VjkuNDNINi45MUw2LjMxLDZabS0uNDMsMTMuNzlhLjg3Ljg3LDAsMCwxLTEuNzMsMGMwLS4xMywwLS4yMiwwLS4zMUwxMCwyMGEuNTQuNTQsMCwwLDAsLjM0LjE4QS40MS40MSwwLDAsMCwxMC43LDIwbC40Ny0uNTZDMTEuMTcsMTkuNTUsMTEuMjIsMTkuNjQsMTEuMjIsMTkuNzdabS0uMzktMS4zLS40OC42MS0uNDctLjYxTDkuNTQsMThoMS42M1ptMTAuNzIsMS4zYS44Ni44NiwwLDAsMS0xLjcyLDBjMC0uMTMsMC0uMjIsMC0uMzFsLjQ4LjU2YS41LjUsMCwwLDAsLjM0LjE4QS40MS40MSwwLDAsMCwyMSwyMGwuNDctLjU2QzIxLjUxLDE5LjU1LDIxLjU1LDE5LjY0LDIxLjU1LDE5Ljc3Wm0tLjM4LTEuMy0uNDguNjEtLjQ3LS42MUwxOS44NywxOGgxLjY0Wm0zLTEuNzJhLjQuNCwwLDAsMS0uNDMuNDNINi45MWEuNDUuNDUsMCwwLDEtLjQzLS4zOWwtMi0xMS4zM0EuNDEuNDEsMCwwLDAsNCw1LjEySDEuMzFhLjQuNCwwLDAsMS0uNDMtLjQzLjQuNCwwLDAsMSwuNDMtLjQzSDQuNzVhLjQ1LjQ1LDAsMCwxLC40My4zOUw3LjIxLDE2YS40MS40MSwwLDAsMCwuNDMuMzVIMjMuNzFhLjQuNCwwLDAsMSwuNDMuNDNabS00Ljc0LTMuMVYxMC4yOWg0Ljc0djIuMjhhLjQ1LjQ1LDAsMCwxLS4zOS40M1oiIGNsYXNzPSJjbHMtMSIvPjwvc3ZnPg==;imageBackground=none;fontColor=none;opacity=50;noLabel=1;textOpacity=50;" vertex="1" parent="1">
          <mxGeometry x="420" y="143" width="57" height="57" as="geometry" />
        </mxCell>
        <mxCell id="GGGA3vVha_UHYo8XQYGH-9" value="" style="shape=image;verticalLabelPosition=bottom;labelBackgroundColor=none;verticalAlign=top;aspect=fixed;imageAspect=0;image=data:image/svg+xml,PHN2ZyB4bWxucz0iaHR0cDovL3d3dy53My5vcmcvMjAwMC9zdmciIHZpZXdCb3g9IjAgMCAyNSAyNSIgZGF0YS1uYW1lPSJMYXllciAxIiBpZD0iTGF5ZXJfMSI+PGRlZnM+PHN0eWxlPi5jbHMtMXtmaWxsOiMwMTAxMDE7fTwvc3R5bGU+PC9kZWZzPjxwYXRoIGQ9Ik0xMy43NSwxNC4wNWgtMi41YTQuOSw0LjksMCwwLDAtMy41NCwxLjUzLDUuMzMsNS4zMywwLDAsMC0xLjQ2LDMuNjh2Mi42YTEuMjksMS4yOSwwLDAsMCwuMzcuOTIsMS4xOSwxLjE5LDAsMCwwLC44OC4zOGgxMGExLjE5LDEuMTksMCwwLDAsLjg4LS4zOCwxLjI5LDEuMjksMCwwLDAsLjM3LS45MnYtMi42YTUuMzMsNS4zMywwLDAsMC0xLjQ2LTMuNjhBNC45LDQuOSwwLDAsMCwxMy43NSwxNC4wNVptMy43NSw3LjE2aDBhLjcuNywwLDAsMS0uMTguNDYuNjQuNjQsMCwwLDEtLjQ1LjE5SDguMTNhLjY0LjY0LDAsMCwxLS42My0uNjVWMTkuMjZhMy44MywzLjgzLDAsMCwxLDMuNzUtMy45MWgyLjVhMy44MywzLjgzLDAsMCwxLDMuNzUsMy45MVoiIGNsYXNzPSJjbHMtMSIvPjxwYXRoIGQ9Ik01LjE0LDE4SDEuODhhLjY1LjY1LDAsMCwxLS42My0uNjZ2LS42NWEuNjEuNjEsMCwwLDEsMC0uMTksMy44NiwzLjg2LDAsMCwxLDEuMjUtMi42LDIuNjgsMi42OCwwLDAsMSwuMy0uMjhsLjI4LS4xOWgwYTMuMDUsMy4wNSwwLDAsMSwuNS0uMjgsNC41MSw0LjUxLDAsMCwxLC42NS0uMjIsNC4wOSw0LjA5LDAsMCwxLDEuNTYsMGguMDZhNSw1LDAsMCwxLC42NS4yMiwzLjA1LDMuMDUsMCwwLDEsLjUuMjhsLjI4LjE5LjMuMjguMTMuMTVhNy4yMSw3LjIxLDAsMCwxLDEtLjY5LDUsNSwwLDAsMC0zLjUxLTEuNzZBNC45Miw0LjkyLDAsMCwwLDEuNTksMTMsNS4zMiw1LjMyLDAsMCwwLDAsMTYuNjVWMThhMS4zMywxLjMzLDAsMCwwLC4zNy45MiwxLjIzLDEuMjMsMCwwLDAsLjg4LjM4SDVBNi4yNCw2LjI0LDAsMCwxLDUuMTQsMThaIiBjbGFzcz0iY2xzLTEiLz48cGF0aCBkPSJNNi42NCw5Ljc0YTcuMDgsNy4wOCwwLDAsMS0uMzMtMS4zQTIuMzUsMi4zNSwwLDAsMSw1LDguODRhMi40NiwyLjQ2LDAsMCwxLTIuMTMtMS4yLDIuNjgsMi42OCwwLDAsMS0uMTUtMi41MiwyLjUxLDIuNTEsMCwwLDEsMi0xLjQ3LDIuNDUsMi40NSwwLDAsMSwyLjI0LDEsNi4xMyw2LjEzLDAsMCwxLC43MS0xLjE1LDMuNjQsMy42NCwwLDAsMC0zLjc5LTFBMy44OSwzLjg5LDAsMCwwLDEuMjksNS41Nyw0LDQsMCwwLDAsMi43NCw5LjM1YTMuNjIsMy42MiwwLDAsMCwzLjg5LjM5WiIgY2xhc3M9ImNscy0xIi8+PHBhdGggZD0iTTIwLDExLjQ1YTQuOTEsNC45MSwwLDAsMC0zLjc1LDEuODcsNi4zOSw2LjM5LDAsMCwxLDEuMTQuNjRsLjEzLS4xNmEzLjY1LDMuNjUsMCwwLDEsLjMtLjI3bC4yOC0uMmE0LjgyLDQuODIsMCwwLDEsLjUtLjI3LDMuODMsMy44MywwLDAsMSwuNjUtLjIyLDQuMDksNC4wOSwwLDAsMSwxLjU2LDBoLjA3YTMuNzIsMy43MiwwLDAsMSwuNjQuMjIsMy4zOCwzLjM4LDAsMCwxLC41LjI3bC4yOC4yLjMuMjdhMy44OCwzLjg4LDAsMCwxLDEuMjUsMi42MSwyLDIsMCwwLDEsMCwuMzV2LjQ5YS42OC42OCwwLDAsMS0uMTguNDYuNjQuNjQsMCwwLDEtLjQ1LjE5SDE5Ljg2QTYuOSw2LjksMCwwLDEsMjAsMTkuMjZoMy43NWExLjIzLDEuMjMsMCwwLDAsLjg4LS4zOEExLjMzLDEuMzMsMCwwLDAsMjUsMThWMTYuNjVBNS4zNSw1LjM1LDAsMCwwLDIzLjU0LDEzLDQuOTMsNC45MywwLDAsMCwyMCwxMS40NVoiIGNsYXNzPSJjbHMtMSIvPjxwYXRoIGQ9Ik0yMCwyLjM0YTMuNjgsMy42OCwwLDAsMC0yLjY1LDEuMTQsNi4xMyw2LjEzLDAsMCwxLC43MSwxLjE1LDIuNDUsMi40NSwwLDAsMSwyLjU3LS45NUEyLjU1LDIuNTUsMCwwLDEsMjIuNSw1LjczYTIuNjUsMi42NSwwLDAsMS0xLDIuNjIsMi40MSwyLjQxLDAsMCwxLTIuNzIuMDksNS43Nyw1Ljc3LDAsMCwxLS4zMywxLjMsMy42MSwzLjYxLDAsMCwwLDMuMjgsMCwzLjg2LDMuODYsMCwwLDAsMi0yLjY4QTQsNCwwLDAsMCwyMywzLjc2LDMuNjYsMy42NiwwLDAsMCwyMCwyLjM0WiIgY2xhc3M9ImNscy0xIi8+PHBhdGggZD0iTTEyLjUsMTIuNzVBNC45LDQuOSwwLDAsMCwxNiwxMS4yMmE1LjM3LDUuMzcsMCwwLDAsMC03LjM2QTQuODgsNC44OCwwLDAsMCw5LDMuODZhNS4zNyw1LjM3LDAsMCwwLDAsNy4zNkE0LjksNC45LDAsMCwwLDEyLjUsMTIuNzVabTAtOS4xMUEzLjc0LDMuNzQsMCwwLDEsMTYsNi4wNWE0LDQsMCwwLDEtLjgxLDQuMjUsMy42NSwzLjY1LDAsMCwxLTQuMDkuODVBMy45MiwzLjkyLDAsMCwxLDguNzUsNy41NCwzLjgyLDMuODIsMCwwLDEsMTIuNSwzLjY0WiIgY2xhc3M9ImNscy0xIi8+PC9zdmc+;opacity=50;fontColor=none;noLabel=1;textOpacity=50;" vertex="1" parent="1">
          <mxGeometry x="419" y="292.75" width="57" height="57" as="geometry" />
        </mxCell>
        <mxCell id="GGGA3vVha_UHYo8XQYGH-25" value="" style="endArrow=classic;html=1;rounded=0;exitX=0;exitY=1;exitDx=0;exitDy=0;entryX=1;entryY=0;entryDx=0;entryDy=0;" edge="1" parent="1" source="GGGA3vVha_UHYo8XQYGH-19" target="GGGA3vVha_UHYo8XQYGH-17">
          <mxGeometry width="50" height="50" relative="1" as="geometry">
            <mxPoint x="340" y="370" as="sourcePoint" />
            <mxPoint x="390" y="320" as="targetPoint" />
          </mxGeometry>
        </mxCell>
        <mxCell id="GGGA3vVha_UHYo8XQYGH-26" value="input" style="text;html=1;align=center;verticalAlign=middle;resizable=0;points=[];autosize=1;strokeColor=none;fillColor=none;" vertex="1" parent="1">
          <mxGeometry x="245" y="228" width="50" height="30" as="geometry" />
        </mxCell>
        <mxCell id="GGGA3vVha_UHYo8XQYGH-27" value="" style="endArrow=classic;html=1;rounded=0;exitX=0;exitY=0;exitDx=0;exitDy=0;entryX=1;entryY=1;entryDx=0;entryDy=0;" edge="1" parent="1" source="GGGA3vVha_UHYo8XQYGH-18" target="GGGA3vVha_UHYo8XQYGH-17">
          <mxGeometry width="50" height="50" relative="1" as="geometry">
            <mxPoint x="320" y="420" as="sourcePoint" />
            <mxPoint x="260" y="486" as="targetPoint" />
          </mxGeometry>
        </mxCell>
        <mxCell id="GGGA3vVha_UHYo8XQYGH-28" value="input" style="text;html=1;align=center;verticalAlign=middle;resizable=0;points=[];autosize=1;strokeColor=none;fillColor=none;" vertex="1" parent="1">
          <mxGeometry x="245" y="390" width="50" height="30" as="geometry" />
        </mxCell>
        <mxCell id="GGGA3vVha_UHYo8XQYGH-30" value="" style="endArrow=classic;startArrow=classic;html=1;rounded=0;exitX=1;exitY=0.485;exitDx=0;exitDy=0;exitPerimeter=0;" edge="1" parent="1" source="GGGA3vVha_UHYo8XQYGH-17">
          <mxGeometry width="50" height="50" relative="1" as="geometry">
            <mxPoint x="340" y="370" as="sourcePoint" />
            <mxPoint x="320" y="320" as="targetPoint" />
          </mxGeometry>
        </mxCell>
        <mxCell id="GGGA3vVha_UHYo8XQYGH-31" value="interact" style="text;html=1;align=center;verticalAlign=middle;resizable=0;points=[];autosize=1;strokeColor=none;fillColor=none;" vertex="1" parent="1">
          <mxGeometry x="260" y="297" width="60" height="30" as="geometry" />
        </mxCell>
        <mxCell id="GGGA3vVha_UHYo8XQYGH-32" value="input" style="text;html=1;align=center;verticalAlign=middle;resizable=0;points=[];autosize=1;strokeColor=none;fillColor=none;" vertex="1" parent="1">
          <mxGeometry x="486" y="297" width="50" height="30" as="geometry" />
        </mxCell>
        <mxCell id="GGGA3vVha_UHYo8XQYGH-33" value="" style="endArrow=classic;html=1;rounded=0;exitX=1;exitY=0.5;exitDx=0;exitDy=0;entryX=0;entryY=0.5;entryDx=0;entryDy=0;" edge="1" parent="1" source="GGGA3vVha_UHYo8XQYGH-2" target="GGGA3vVha_UHYo8XQYGH-20">
          <mxGeometry width="50" height="50" relative="1" as="geometry">
            <mxPoint x="330" y="228" as="sourcePoint" />
            <mxPoint x="270" y="293" as="targetPoint" />
          </mxGeometry>
        </mxCell>
        <mxCell id="GGGA3vVha_UHYo8XQYGH-34" value="" style="endArrow=classic;html=1;rounded=0;exitX=0;exitY=0;exitDx=0;exitDy=0;entryX=1;entryY=1;entryDx=0;entryDy=0;" edge="1" parent="1" source="GGGA3vVha_UHYo8XQYGH-20" target="GGGA3vVha_UHYo8XQYGH-19">
          <mxGeometry width="50" height="50" relative="1" as="geometry">
            <mxPoint x="330" y="228" as="sourcePoint" />
            <mxPoint x="270" y="293" as="targetPoint" />
          </mxGeometry>
        </mxCell>
        <mxCell id="GGGA3vVha_UHYo8XQYGH-35" value="feedback" style="text;html=1;align=center;verticalAlign=middle;resizable=0;points=[];autosize=1;strokeColor=none;fillColor=none;" vertex="1" parent="1">
          <mxGeometry x="500" y="228" width="70" height="30" as="geometry" />
        </mxCell>
        <mxCell id="GGGA3vVha_UHYo8XQYGH-36" value="" style="endArrow=classic;html=1;rounded=0;exitX=0;exitY=1;exitDx=0;exitDy=0;entryX=1;entryY=0;entryDx=0;entryDy=0;" edge="1" parent="1" source="GGGA3vVha_UHYo8XQYGH-20" target="GGGA3vVha_UHYo8XQYGH-18">
          <mxGeometry width="50" height="50" relative="1" as="geometry">
            <mxPoint x="555" y="293" as="sourcePoint" />
            <mxPoint x="490" y="228" as="targetPoint" />
          </mxGeometry>
        </mxCell>
        <mxCell id="GGGA3vVha_UHYo8XQYGH-37" value="feedback" style="text;html=1;align=center;verticalAlign=middle;resizable=0;points=[];autosize=1;strokeColor=none;fillColor=none;" vertex="1" parent="1">
          <mxGeometry x="500" y="390" width="70" height="30" as="geometry" />
        </mxCell>
      </root>
    </mxGraphModel>
  </diagram>
</mxfile>
